<svg version="1.0" xmlns="http://www.w3.org/2000/svg" width="234.667" height="62.667" viewBox="0 0 176 47"><path d="M26.7 11.6c-3.2 3.1-4.4 7-3 9.2 1.6 2.7 3 2.4 2.6-.5-.5-3.3 1.2-8.3 2.8-8.3.8 0 1 3.4.7 12-.2 6.6-.1 12 .3 12 1.9 0 3-6.4 2.7-16-.3-11.8-1.3-13.2-6.1-8.4zm38.3-.7c0 1.4-.9 2.5-2.6 3.1-2.6 1-2.5 3 .2 3 1 0 1.4 1.3 1.4 4.9 0 2.8-.4 5.3-1 5.6-1.7 1-6.1-4.7-5.5-7.2.3-1.2 0-2.5-.5-2.8-1.7-1-4 1.5-4 4.2 0 2.8-2.6 8.3-4 8.3-.5 0-1-2.6-1.2-5.8-.3-5-.6-5.7-2.5-6-1.6-.2-2.7.5-4 3l-1.8 3.3-.3-3.3c-.2-2-.9-3.2-1.8-3.2-1.2 0-1.4 1.4-1.2 7.2.2 4.6.7 7.3 1.5 7.6.7.2 1.5-.2 1.7-1C41 26.4 43.3 21 44.1 21c.5 0 .9 2.7.9 6 0 5.3.2 6 2 6 1.2 0 3-1.6 4.6-4 2.9-4.3 3.4-4.6 5.2-2.8 2.1 2.1 1.5 4.9-1 4.6-1.3-.2-2.5.1-2.8.7-.3.6 1.2 1.1 3.2 1.3 2.8.2 4.2-.2 5.5-1.7 2.2-2.6 2.9-2.6 3.6-.1.6 2.4 3.9 2.6 5.8.4 1.1-1.4 1.3-1.4 2.1 0 1 1.8 6.3 2.2 7.3.6.5-.7 1.1-.8 1.8-.1.7.5 4 .9 7.4.8l6.2-.2-2.3 2.5c-5.1 5.4-5.1 10-.1 10 3.1 0 5.5-3.5 5.5-8-.1-4.1 5.8-16 7.9-16 1 0 1.2.8.8 2.9-.3 1.5-.3 4.1.2 5.7.7 2.8 1 2.9 6.7 3.1 3.2.1 6.5-.4 7.2-1 1-.8 1.5-.8 2 0 .4.6 2.8 1.1 5.5 1.1h4.7v-3.4c0-2 .6-4.5 1.3-5.7 1.1-2 1.2-1.8 1.7 2.8.4 3.7.9 5.1 2.3 5.3 1.2.3 1.7-.3 1.7-2 0-1.3.3-3.4.7-4.8.6-2.2.9-1.9 1.8 2.5.8 3.4 1.7 5.1 2.9 5.3 2.1.4 4.6-1.5 4.6-3.6 0-1.3-.3-1.2-1.5.4-1.3 1.6-1.6 1.7-2.5.4-.5-.8-1-3.9-1-6.8 0-4.4-.3-5.2-1.9-5.2-1.2 0-2.4 1.2-3.2 3.3l-1.3 3.2-.3-3.3c-.5-3.8-3.4-4.4-5.1-1l-1.1 2.3v-2.3c-.1-1.3-.7-2.2-1.6-2.2-1.1 0-1.5 1.2-1.5 5.1 0 5.3-1.5 9.4-3.1 8.4-.5-.4-.9-3.5-.9-6.9v-6.3l-3.7-.6c-5.2-.9-7.6 1.6-8.3 8.6-.7 7.2-2.4 6.6-2.8-1.1-.3-5.8-.5-6.2-2.7-6.2-1.3 0-2.5-.5-2.7-1.2-.2-.6-1.2-.9-2.1-.5-1.3.5-1.6 1.3-1.1 3.1.3 1.4-.2 3.7-1.3 5.7l-1.8 3.4-.3-5.6-.3-5.7-3.7-.6c-3-.5-4-.2-5.4 1.5-1.6 1.8-2.4 5.4-1.9 8.2.3 1.5-2 4.7-3 4.2-.5-.4-.9-3.5-.9-6.9v-6.3l-3.7-.6c-4.7-.8-6.9 1.1-7.8 6.6-.7 4.3-2 6.7-3.6 6.7-.5 0-.9-3.2-.9-7 0-6.3.2-7 1.9-7 3 0 3.5-1.9.7-2.6-1.5-.3-2.6-1.4-2.8-2.7-.4-2.8-2.8-3.5-2.8-.8zm15.8 12.8c.4 3.8-1.3 7.3-3.3 7.3-1.1 0-1.5-1.3-1.5-4.8 0-5.3.6-6.4 3-6 .9.2 1.6 1.6 1.8 3.5zm15 .8c.3 4.7-.9 7-3.2 6.2-1.6-.7-2.2-5.9-1-9.2 1.2-3.1 3.9-1.2 4.2 3zm26.6-2.9c1.1 2.7.7 5.9-1.1 8.3-1.5 2.3-1.7 2.3-3 .6-1.5-2.2-1.7-4.4-.3-7.9 1.1-2.9 3.5-3.4 4.4-1zm-26 17.1c-1 4.6-1.3 5.3-2.4 5.3-1.9 0-2.2-3-.6-5.5 2.2-3.3 3.8-3.2 3 .2z"/></svg>