<?xml version="1.0" standalone="no"?>
<!DOCTYPE svg PUBLIC "-//W3C//DTD SVG 20010904//EN"
 "http://www.w3.org/TR/2001/REC-SVG-20010904/DTD/svg10.dtd">
<svg version="1.0" xmlns="http://www.w3.org/2000/svg"
 width="167.000000pt" height="118.000000pt" viewBox="0 0 167.000000 118.000000"
 preserveAspectRatio="xMidYMid meet">

<g transform="translate(0.000000,118.000000) scale(0.100000,-0.100000)"
fill="#000000" stroke="none">
<path d="M450 919 c-167 -10 -207 -19 -240 -54 -32 -34 -34 -88 -17 -346 15
-227 20 -243 85 -274 27 -14 54 -15 176 -8 l143 8 11 -42 c14 -49 55 -91 97
-98 16 -3 102 -9 190 -15 283 -18 317 -14 357 41 17 22 21 60 35 275 14 230
14 251 -2 280 -31 57 -60 66 -257 77 l-178 10 0 32 c0 38 -36 95 -70 112 -28
14 -109 14 -330 2z m321 -25 c30 -15 59 -65 59 -101 0 -15 -7 -18 -43 -15 -93
8 -157 -50 -157 -139 0 -82 -10 -105 -74 -175 l-63 -68 -60 52 c-33 29 -68 52
-78 52 -11 0 -45 -28 -76 -62 l-57 -63 -7 180 c-13 277 -12 281 32 311 23 14
65 20 218 30 266 16 272 16 306 -2z m242 -154 c98 -6 189 -15 202 -20 45 -17
59 -54 57 -149 -7 -235 -21 -391 -38 -421 -29 -48 -55 -51 -307 -36 -244 16
-266 21 -289 72 -19 40 7 468 31 514 21 41 63 59 125 54 23 -2 121 -9 219 -14z
m-401 -356 l-4 -112 -72 -6 c-148 -13 -233 -10 -261 8 -37 24 -51 59 -34 84
19 26 95 108 108 117 7 3 37 -16 67 -44 31 -29 65 -51 77 -51 15 0 38 20 71
60 27 34 50 59 51 58 1 -2 0 -53 -3 -114z"/>
<path d="M297 792 c-22 -24 -21 -65 1 -85 40 -36 102 -9 102 45 0 51 -69 78
-103 40z m67 -18 c19 -18 19 -20 6 -45 -18 -33 -70 -18 -70 21 0 19 19 40 36
40 7 0 20 -7 28 -16z"/>
<path d="M820 590 c-6 -10 -13 -82 -17 -159 -9 -202 1 -207 192 -108 119 61
120 62 120 97 0 33 -5 38 -115 113 -120 81 -160 94 -180 57z m168 -75 c80 -54
112 -81 112 -95 0 -16 -27 -34 -124 -82 -81 -40 -129 -59 -141 -54 -16 6 -17
18 -10 144 7 131 14 162 39 162 6 0 62 -34 124 -75z"/>
</g>
</svg>
